<svg width="120" height="120" viewBox="0 0 120 120" fill="none" xmlns="http://www.w3.org/2000/svg">
<path d="M10 75H92.5C102.15 75 110 82.85 110 92.5C110 102.15 102.15 110 92.5 110C82.85 110 75 102.15 75 92.5V90" stroke="#F2F2F2" stroke-width="10.5" stroke-miterlimit="10" stroke-linecap="round" stroke-linejoin="round"/>
<path d="M45.2499 60H92.5C102.1 60 110 52.15 110 42.5C110 32.9 102.1 25 92.5 25C82.9 25 75 32.85 75 42.5V45" stroke="#F2F2F2" stroke-width="10.5" stroke-miterlimit="10" stroke-linecap="round" stroke-linejoin="round"/>
<path d="M10 60H24.9001" stroke="#F2F2F2" stroke-width="10.5" stroke-miterlimit="10" stroke-linecap="round" stroke-linejoin="round"/>
<path d="M10 45.0001H46.55C54 45.0001 60 38.9501 60 31.5501C60 24.1001 53.95 18.1001 46.55 18.1001C39.1 18.1001 33.1 24.1501 33.1 31.5501V33.4501" stroke="#F2F2F2" stroke-width="10.5" stroke-miterlimit="10" stroke-linecap="round" stroke-linejoin="round"/>
</svg>
