<svg width="120" height="120" viewBox="0 0 120 120" fill="none" xmlns="http://www.w3.org/2000/svg">
<path d="M110 54.95V23.35C110 17.35 105.1 12.9 99.15 13.4H98.85C88.35 14.3 72.4 19.65 63.5 25.25L62.65 25.8C61.2 26.7 58.8 26.7 57.35 25.8L56.1 25.05C47.2 19.5 31.3 14.2 20.8 13.35C14.85 12.85 10 17.35 10 23.3V83.7C10 88.5 13.9 93 18.7 93.6L20.15 93.8C31 95.25 47.75 100.75 57.35 106L57.55 106.1C58.9 106.85 61.05 106.85 62.35 106.1C71.95 100.8 88.75 95.25 99.65 93.8L101.3 93.6C106.1 93 110 88.5 110 83.7V75.1" stroke="#D9D9D9" stroke-width="10" stroke-linecap="round" stroke-linejoin="round"/>
<path d="M60 27.45V102.45" stroke="#D9D9D9" stroke-width="10" stroke-linecap="round" stroke-linejoin="round"/>
<path d="M38.75 42.45H27.5" stroke="#D9D9D9" stroke-width="10" stroke-linecap="round" stroke-linejoin="round"/>
<path d="M42.5 57.45H27.5" stroke="#D9D9D9" stroke-width="10" stroke-linecap="round" stroke-linejoin="round"/>
</svg>
